<mxfile host="app.diagrams.net" modified="2023-07-24T18:39:53.467Z" agent="Mozilla/5.0 (Windows NT 10.0; Win64; x64) AppleWebKit/537.36 (KHTML, like Gecko) Chrome/114.0.0.0 Safari/537.36" etag="rgBC04JcnPpgKINJsNlU" version="21.6.5" type="device">
  <diagram name="Página-1" id="Ok_ay5SPbuPSa-EIwbA8">
    <mxGraphModel dx="1049" dy="621" grid="1" gridSize="10" guides="1" tooltips="1" connect="1" arrows="1" fold="1" page="1" pageScale="1" pageWidth="827" pageHeight="1169" math="0" shadow="0">
      <root>
        <mxCell id="0" />
        <mxCell id="1" parent="0" />
        <mxCell id="UazZVvfRSX2_fMpyDdJp-1" value="&lt;div&gt;Construa a modelagem que represente pessoas e seus dados, observando que:&lt;/div&gt;&lt;div&gt;&lt;br&gt;&lt;/div&gt;&lt;div&gt;- uma pessoa pode ter vários telefones e vários emails, porém, pode possuir somente uma CNH.&lt;/div&gt;" style="text;html=1;align=center;verticalAlign=middle;resizable=0;points=[];autosize=1;strokeColor=none;fillColor=none;" vertex="1" parent="1">
          <mxGeometry x="144" y="40" width="540" height="60" as="geometry" />
        </mxCell>
        <mxCell id="UazZVvfRSX2_fMpyDdJp-9" style="edgeStyle=orthogonalEdgeStyle;rounded=0;orthogonalLoop=1;jettySize=auto;html=1;exitX=0;exitY=0.5;exitDx=0;exitDy=0;endArrow=none;endFill=0;entryX=0.5;entryY=0;entryDx=0;entryDy=0;" edge="1" parent="1" source="UazZVvfRSX2_fMpyDdJp-2" target="UazZVvfRSX2_fMpyDdJp-4">
          <mxGeometry relative="1" as="geometry">
            <mxPoint x="439" y="330" as="targetPoint" />
          </mxGeometry>
        </mxCell>
        <mxCell id="wW-64io9rfztyI4WwXKy-2" style="edgeStyle=orthogonalEdgeStyle;rounded=0;orthogonalLoop=1;jettySize=auto;html=1;exitX=1;exitY=0.5;exitDx=0;exitDy=0;entryX=0;entryY=0.5;entryDx=0;entryDy=0;endArrow=none;endFill=0;" edge="1" parent="1" source="UazZVvfRSX2_fMpyDdJp-2" target="wW-64io9rfztyI4WwXKy-1">
          <mxGeometry relative="1" as="geometry" />
        </mxCell>
        <mxCell id="UazZVvfRSX2_fMpyDdJp-2" value="CNH" style="rounded=0;whiteSpace=wrap;html=1;" vertex="1" parent="1">
          <mxGeometry x="503" y="210" width="120" height="60" as="geometry" />
        </mxCell>
        <mxCell id="UazZVvfRSX2_fMpyDdJp-11" style="edgeStyle=orthogonalEdgeStyle;rounded=0;orthogonalLoop=1;jettySize=auto;html=1;exitX=1;exitY=0.5;exitDx=0;exitDy=0;entryX=0;entryY=0.5;entryDx=0;entryDy=0;endArrow=none;endFill=0;" edge="1" parent="1" source="UazZVvfRSX2_fMpyDdJp-3" target="UazZVvfRSX2_fMpyDdJp-4">
          <mxGeometry relative="1" as="geometry" />
        </mxCell>
        <mxCell id="UazZVvfRSX2_fMpyDdJp-3" value="Pessoa" style="rounded=0;whiteSpace=wrap;html=1;" vertex="1" parent="1">
          <mxGeometry x="39" y="300" width="120" height="60" as="geometry" />
        </mxCell>
        <mxCell id="UazZVvfRSX2_fMpyDdJp-7" style="edgeStyle=orthogonalEdgeStyle;rounded=0;orthogonalLoop=1;jettySize=auto;html=1;exitX=1;exitY=0.5;exitDx=0;exitDy=0;entryX=0;entryY=0.5;entryDx=0;entryDy=0;endArrow=none;endFill=0;" edge="1" parent="1" source="UazZVvfRSX2_fMpyDdJp-4" target="UazZVvfRSX2_fMpyDdJp-6">
          <mxGeometry relative="1" as="geometry" />
        </mxCell>
        <mxCell id="UazZVvfRSX2_fMpyDdJp-4" value="Possui" style="rhombus;whiteSpace=wrap;html=1;" vertex="1" parent="1">
          <mxGeometry x="299" y="290" width="80" height="80" as="geometry" />
        </mxCell>
        <mxCell id="UazZVvfRSX2_fMpyDdJp-10" style="edgeStyle=orthogonalEdgeStyle;rounded=0;orthogonalLoop=1;jettySize=auto;html=1;endArrow=none;endFill=0;entryX=0.5;entryY=1;entryDx=0;entryDy=0;" edge="1" parent="1" source="UazZVvfRSX2_fMpyDdJp-5" target="UazZVvfRSX2_fMpyDdJp-4">
          <mxGeometry relative="1" as="geometry">
            <mxPoint x="439" y="330" as="targetPoint" />
          </mxGeometry>
        </mxCell>
        <mxCell id="wW-64io9rfztyI4WwXKy-7" style="edgeStyle=orthogonalEdgeStyle;rounded=0;orthogonalLoop=1;jettySize=auto;html=1;exitX=1;exitY=0.5;exitDx=0;exitDy=0;endArrow=none;endFill=0;" edge="1" parent="1" source="UazZVvfRSX2_fMpyDdJp-5" target="wW-64io9rfztyI4WwXKy-3">
          <mxGeometry relative="1" as="geometry" />
        </mxCell>
        <mxCell id="UazZVvfRSX2_fMpyDdJp-5" value="Email" style="rounded=0;whiteSpace=wrap;html=1;" vertex="1" parent="1">
          <mxGeometry x="503" y="400" width="120" height="60" as="geometry" />
        </mxCell>
        <mxCell id="wW-64io9rfztyI4WwXKy-5" style="edgeStyle=orthogonalEdgeStyle;rounded=0;orthogonalLoop=1;jettySize=auto;html=1;exitX=1;exitY=0.5;exitDx=0;exitDy=0;entryX=0;entryY=0.5;entryDx=0;entryDy=0;endArrow=none;endFill=0;" edge="1" parent="1" source="UazZVvfRSX2_fMpyDdJp-6" target="wW-64io9rfztyI4WwXKy-4">
          <mxGeometry relative="1" as="geometry" />
        </mxCell>
        <mxCell id="UazZVvfRSX2_fMpyDdJp-6" value="Telefone" style="rounded=0;whiteSpace=wrap;html=1;" vertex="1" parent="1">
          <mxGeometry x="503" y="300" width="120" height="60" as="geometry" />
        </mxCell>
        <mxCell id="UazZVvfRSX2_fMpyDdJp-12" value="1" style="text;html=1;align=center;verticalAlign=middle;resizable=0;points=[];autosize=1;strokeColor=none;fillColor=none;" vertex="1" parent="1">
          <mxGeometry x="473" y="210" width="30" height="30" as="geometry" />
        </mxCell>
        <mxCell id="UazZVvfRSX2_fMpyDdJp-13" value="1" style="text;html=1;align=center;verticalAlign=middle;resizable=0;points=[];autosize=1;strokeColor=none;fillColor=none;" vertex="1" parent="1">
          <mxGeometry x="159" y="300" width="30" height="30" as="geometry" />
        </mxCell>
        <mxCell id="UazZVvfRSX2_fMpyDdJp-14" value="N" style="text;html=1;align=center;verticalAlign=middle;resizable=0;points=[];autosize=1;strokeColor=none;fillColor=none;" vertex="1" parent="1">
          <mxGeometry x="473" y="300" width="30" height="30" as="geometry" />
        </mxCell>
        <mxCell id="UazZVvfRSX2_fMpyDdJp-15" value="N" style="text;html=1;align=center;verticalAlign=middle;resizable=0;points=[];autosize=1;strokeColor=none;fillColor=none;" vertex="1" parent="1">
          <mxGeometry x="474" y="400" width="30" height="30" as="geometry" />
        </mxCell>
        <mxCell id="wW-64io9rfztyI4WwXKy-1" value="NumCPF" style="ellipse;whiteSpace=wrap;html=1;" vertex="1" parent="1">
          <mxGeometry x="669" y="200" width="120" height="80" as="geometry" />
        </mxCell>
        <mxCell id="wW-64io9rfztyI4WwXKy-3" value="EndEmail" style="ellipse;whiteSpace=wrap;html=1;" vertex="1" parent="1">
          <mxGeometry x="669" y="390" width="120" height="80" as="geometry" />
        </mxCell>
        <mxCell id="wW-64io9rfztyI4WwXKy-4" value="NumTelefone" style="ellipse;whiteSpace=wrap;html=1;" vertex="1" parent="1">
          <mxGeometry x="669" y="290" width="120" height="80" as="geometry" />
        </mxCell>
        <mxCell id="wW-64io9rfztyI4WwXKy-9" style="edgeStyle=orthogonalEdgeStyle;rounded=0;orthogonalLoop=1;jettySize=auto;html=1;exitX=0.5;exitY=1;exitDx=0;exitDy=0;entryX=0.5;entryY=0;entryDx=0;entryDy=0;endArrow=none;endFill=0;" edge="1" parent="1" source="wW-64io9rfztyI4WwXKy-8" target="UazZVvfRSX2_fMpyDdJp-3">
          <mxGeometry relative="1" as="geometry" />
        </mxCell>
        <mxCell id="wW-64io9rfztyI4WwXKy-8" value="NOME" style="ellipse;whiteSpace=wrap;html=1;" vertex="1" parent="1">
          <mxGeometry x="39" y="170" width="120" height="80" as="geometry" />
        </mxCell>
      </root>
    </mxGraphModel>
  </diagram>
</mxfile>
